<svg width="182" height="161" viewBox="0 0 182 161" fill="none" xmlns="http://www.w3.org/2000/svg">
<path d="M0 90C0 83.3726 5.37258 78 12 78H170C176.627 78 182 83.3726 182 90V149C182 155.627 176.627 161 170 161H12C5.37258 161 0 155.627 0 149V90Z" fill="#EC7070"/>
<path d="M66 78C66 71.3726 71.3726 66 78 66H94C100.627 66 106 71.3726 106 78V146H66V78Z" fill="#CAC2C2"/>
<path d="M12 35C12 28.3726 17.3726 23 24 23H40C46.6274 23 52 28.3726 52 35V146H12V35Z" fill="#CAC2C2"/>
<path d="M120 106C120 99.3726 125.373 94 132 94H148C154.627 94 160 99.3726 160 106V146H120V106Z" fill="#CAC2C2"/>
<circle cx="85.5" cy="44.5" r="13.5" fill="#CAC2C2"/>
<circle cx="119.5" cy="22.5" r="13.5" fill="#CAC2C2"/>
<circle cx="146.5" cy="71.5" r="13.5" fill="#CAC2C2"/>
</svg>
