<svg width="366" height="184" viewBox="0 0 366 184" fill="none" xmlns="http://www.w3.org/2000/svg">
<g clip-path="url(#clip0_941_2370)">
<path d="M-5 90.5C-5 90.5 47.5 45 58.5 44.5C69.5 44 81.5 64 93.5 63.5C105.5 63 119.5 26 140.5 26C161.5 26 196.5 94.5 196.5 94.5" stroke="#F3E7E7" stroke-width="12" stroke-linejoin="round"/>
<path d="M59 126C59 119.373 64.3726 114 71 114H87C93.6274 114 99 119.373 99 126V194H59V126Z" fill="white"/>
<path d="M5 83C5 76.3726 10.3726 71 17 71H33C39.6274 71 45 76.3726 45 83V194H5V83Z" fill="white"/>
<path d="M113 101C113 94.3726 118.373 89 125 89H141C147.627 89 153 94.3726 153 101V184H113V101Z" fill="white"/>
<path d="M167 126C167 119.373 172.373 114 179 114H195C201.627 114 207 119.373 207 126V187H167V126Z" fill="white"/>
<path d="M224 72C224 65.3726 229.373 60 236 60H238C244.627 60 250 65.3726 250 72V155C250 161.627 244.627 167 238 167H236C229.373 167 224 161.627 224 155V72Z" fill="white"/>
<path d="M260 72C260 65.3726 265.373 60 272 60H274C280.627 60 286 65.3726 286 72V139C286 145.627 280.627 151 274 151H272C265.373 151 260 145.627 260 139V72Z" fill="white"/>
<path d="M330 65C330 58.3726 335.373 53 342 53H344C350.627 53 356 58.3726 356 65V157C356 163.627 350.627 169 344 169H342C335.373 169 330 163.627 330 157V65Z" fill="white"/>
<path d="M296 24C296 17.3726 301.373 12 308 12H310C316.627 12 322 17.3726 322 24V134C322 140.627 316.627 146 310 146H308C301.373 146 296 140.627 296 134V24Z" fill="white"/>
<circle cx="91.5" cy="66.5" r="13.5" fill="white"/>
<circle cx="139.5" cy="25.5" r="13.5" fill="white"/>
<circle cx="193.5" cy="90.5" r="13.5" fill="#FDFDFD"/>
<path d="M109 12C109 5.37258 114.373 0 121 0H145C151.627 0 157 5.37258 157 12V172C157 178.627 151.627 184 145 184H121C114.373 184 109 178.627 109 172V12Z" fill="#F0F0F0" fill-opacity="0.3"/>
<path d="M224 116C224 113.239 226.239 111 229 111H351C353.761 111 356 113.239 356 116V116C356 118.761 353.761 121 351 121H229C226.239 121 224 118.761 224 116V116Z" fill="#F0F0F0" fill-opacity="0.6"/>
</g>
<defs>
<clipPath id="clip0_941_2370">
<rect width="366" height="184" fill="white"/>
</clipPath>
</defs>
</svg>
