<svg width="152" height="184" viewBox="0 0 152 184" fill="none" xmlns="http://www.w3.org/2000/svg">
<rect y="81" width="64" height="103" fill="#657AC7"/>
<path d="M21.8608 132V129.571L30.983 119.585C32.0535 118.416 32.9351 117.399 33.6278 116.536C34.3205 115.663 34.8333 114.844 35.1662 114.08C35.508 113.306 35.679 112.496 35.679 111.651C35.679 110.679 35.4451 109.838 34.9773 109.127C34.5185 108.416 33.8887 107.868 33.0881 107.481C32.2874 107.094 31.3878 106.901 30.3892 106.901C29.3277 106.901 28.401 107.121 27.6094 107.562C26.8267 107.994 26.2195 108.601 25.7876 109.384C25.3648 110.166 25.1534 111.084 25.1534 112.136H21.9688C21.9688 110.517 22.3421 109.096 23.0888 107.872C23.8355 106.649 24.852 105.695 26.1385 105.011C27.4339 104.328 28.8868 103.986 30.4972 103.986C32.1165 103.986 33.5514 104.328 34.8018 105.011C36.0523 105.695 37.0329 106.617 37.7436 107.778C38.4543 108.938 38.8097 110.229 38.8097 111.651C38.8097 112.667 38.6252 113.661 38.2564 114.633C37.8965 115.595 37.2668 116.67 36.3672 117.858C35.4766 119.036 34.2396 120.476 32.6562 122.176L26.4489 128.815V129.031H39.2955V132H21.8608Z" fill="#FAFAFA"/>
<rect y="130" width="64" height="54" fill="#C73935"/>
<rect x="86" y="81" width="66" height="103" fill="#C73935"/>
<path d="M31.5767 145.364V173H28.2301V148.872H28.0682L21.321 153.352V149.952L28.2301 145.364H31.5767Z" fill="#FAFAFA"/>
<path d="M108.861 132V129.571L117.983 119.585C119.054 118.416 119.935 117.399 120.628 116.536C121.321 115.663 121.833 114.844 122.166 114.08C122.508 113.306 122.679 112.496 122.679 111.651C122.679 110.679 122.445 109.838 121.977 109.127C121.518 108.416 120.889 107.868 120.088 107.481C119.287 107.094 118.388 106.901 117.389 106.901C116.328 106.901 115.401 107.121 114.609 107.562C113.827 107.994 113.219 108.601 112.788 109.384C112.365 110.166 112.153 111.084 112.153 112.136H108.969C108.969 110.517 109.342 109.096 110.089 107.872C110.835 106.649 111.852 105.695 113.138 105.011C114.434 104.328 115.887 103.986 117.497 103.986C119.116 103.986 120.551 104.328 121.802 105.011C123.052 105.695 124.033 106.617 124.744 107.778C125.454 108.938 125.81 110.229 125.81 111.651C125.81 112.667 125.625 113.661 125.256 114.633C124.897 115.595 124.267 116.67 123.367 117.858C122.477 119.036 121.24 120.476 119.656 122.176L113.449 128.815V129.031H126.295V132H108.861Z" fill="#FAFAFA"/>
</svg>
