<svg width="152" height="184" viewBox="0 0 152 184" fill="none" xmlns="http://www.w3.org/2000/svg">
<rect y="130" width="64" height="54" fill="#C73935"/>
<rect y="27" width="64" height="103" fill="#657AC7"/>
<rect x="86" y="27" width="66" height="55" fill="#657BC7"/>
<rect x="86" y="82" width="66" height="102" fill="#C73935"/>
<path d="M21.8608 91V88.571L30.983 78.5852C32.0535 77.4157 32.9351 76.3991 33.6278 75.5355C34.3205 74.6629 34.8333 73.8442 35.1662 73.0795C35.508 72.3059 35.679 71.4962 35.679 70.6506C35.679 69.679 35.4451 68.8378 34.9773 68.1271C34.5185 67.4164 33.8887 66.8677 33.0881 66.4808C32.2874 66.094 31.3878 65.9006 30.3892 65.9006C29.3277 65.9006 28.401 66.121 27.6094 66.5618C26.8267 66.9936 26.2195 67.6009 25.7876 68.3835C25.3648 69.1662 25.1534 70.0838 25.1534 71.1364H21.9688C21.9688 69.517 22.3421 68.0956 23.0888 66.8722C23.8355 65.6487 24.852 64.6951 26.1385 64.0114C27.4339 63.3277 28.8868 62.9858 30.4972 62.9858C32.1165 62.9858 33.5514 63.3277 34.8018 64.0114C36.0523 64.6951 37.0329 65.6172 37.7436 66.7777C38.4543 67.9382 38.8097 69.2292 38.8097 70.6506C38.8097 71.6671 38.6252 72.6612 38.2564 73.6328C37.8965 74.5954 37.2668 75.6705 36.3672 76.858C35.4766 78.0365 34.2396 79.4759 32.6562 81.1761L26.4489 87.8153V88.0312H39.2955V91H21.8608Z" fill="#FAFAFA"/>
<path d="M31.5767 145.364V173H28.2301V148.872H28.0682L21.321 153.352V149.952L28.2301 145.364H31.5767Z" fill="#FAFAFA"/>
<path d="M121.577 43.3636V71H118.23V46.8722H118.068L111.321 51.3523V47.9517L118.23 43.3636H121.577Z" fill="#FAFAFA"/>
<path d="M108.861 136V133.571L117.983 123.585C119.054 122.416 119.935 121.399 120.628 120.536C121.321 119.663 121.833 118.844 122.166 118.08C122.508 117.306 122.679 116.496 122.679 115.651C122.679 114.679 122.445 113.838 121.977 113.127C121.518 112.416 120.889 111.868 120.088 111.481C119.287 111.094 118.388 110.901 117.389 110.901C116.328 110.901 115.401 111.121 114.609 111.562C113.827 111.994 113.219 112.601 112.788 113.384C112.365 114.166 112.153 115.084 112.153 116.136H108.969C108.969 114.517 109.342 113.096 110.089 111.872C110.835 110.649 111.852 109.695 113.138 109.011C114.434 108.328 115.887 107.986 117.497 107.986C119.116 107.986 120.551 108.328 121.802 109.011C123.052 109.695 124.033 110.617 124.744 111.778C125.454 112.938 125.81 114.229 125.81 115.651C125.81 116.667 125.625 117.661 125.256 118.633C124.897 119.595 124.267 120.67 123.367 121.858C122.477 123.036 121.24 124.476 119.656 126.176L113.449 132.815V133.031H126.295V136H108.861Z" fill="#FAFAFA"/>
</svg>
